HIERARCHY
ROOT Hips
{
	OFFSET 0.00000 0.00000 0.00000
	CHANNELS 6 Xposition Yposition Zposition Zrotation Yrotation Xrotation 
	JOINT LHipJoint
	{
		OFFSET 0 0 0
		CHANNELS 3 Zrotation Yrotation Xrotation
		JOINT LeftUpLeg
		{
			OFFSET 1.34019 -1.87553 0.90315
			CHANNELS 3 Zrotation Yrotation Xrotation
			JOINT LeftLeg
			{
				OFFSET 2.55316 -7.01474 0.00000
				CHANNELS 3 Zrotation Yrotation Xrotation
				JOINT LeftFoot
				{
					OFFSET 2.64657 -7.27139 0.00000
					CHANNELS 3 Zrotation Yrotation Xrotation
					JOINT LeftToeBase
					{
						OFFSET 0.24207 -0.66507 2.14489
						CHANNELS 3 Zrotation Yrotation Xrotation
						End Site
						{
							OFFSET 0.00000 -0.00000 1.12451
						}
					}
				}
			}
		}
	}
	JOINT RHipJoint
	{
		OFFSET 0 0 0
		CHANNELS 3 Zrotation Yrotation Xrotation
		JOINT RightUpLeg
		{
			OFFSET -1.28320 -1.87553 0.90315
			CHANNELS 3 Zrotation Yrotation Xrotation
			JOINT RightLeg
			{
				OFFSET -2.60484 -7.15674 0.00000
				CHANNELS 3 Zrotation Yrotation Xrotation
				JOINT RightFoot
				{
					OFFSET -2.60296 -7.15159 0.00000
					CHANNELS 3 Zrotation Yrotation Xrotation
					JOINT RightToeBase
					{
						OFFSET -0.31082 -0.85398 2.28998
						CHANNELS 3 Zrotation Yrotation Xrotation
						End Site
						{
							OFFSET -0.00000 -0.00000 1.21611
						}
					}
				}
			}
		}
	}
	JOINT LowerBack
	{
		OFFSET 0 0 0
		CHANNELS 3 Zrotation Yrotation Xrotation
		JOINT Spine
		{
			OFFSET -0.00160 2.05581 -0.15156
			CHANNELS 3 Zrotation Yrotation Xrotation
			JOINT Spine1
			{
				OFFSET 0.04594 2.06326 -0.01617
				CHANNELS 3 Zrotation Yrotation Xrotation
				JOINT Neck
				{
					OFFSET 0 0 0
					CHANNELS 3 Zrotation Yrotation Xrotation
					JOINT Neck1
					{
						OFFSET 0.03753 1.73883 0.26751
						CHANNELS 3 Zrotation Yrotation Xrotation
						JOINT Head
						{
							OFFSET -0.09795 1.76129 -0.31794
							CHANNELS 3 Zrotation Yrotation Xrotation
							End Site
							{
								OFFSET -0.03611 1.79987 -0.13846
							}
						}
					}
				}
				JOINT LeftShoulder
				{
					OFFSET 0 0 0
					CHANNELS 3 Zrotation Yrotation Xrotation
					JOINT LeftArm
					{
						OFFSET 3.30667 1.29205 -0.22445
						CHANNELS 3 Zrotation Yrotation Xrotation
						JOINT LeftForeArm
						{
							OFFSET 4.92785 -0.00000 -0.00000
							CHANNELS 3 Zrotation Yrotation Xrotation
							JOINT LeftHand
							{
								OFFSET 3.44052 -0.00000 0.00000
								CHANNELS 3 Zrotation Yrotation Xrotation
								JOINT LeftFingerBase
								{
									OFFSET 0 0 0
									CHANNELS 3 Zrotation Yrotation Xrotation
									JOINT LeftHandIndex1
									{
										OFFSET 0.65433 -0.00000 0.00000
										CHANNELS 3 Zrotation Yrotation Xrotation
										End Site
										{
											OFFSET 0.52753 -0.00000 0.00000
										}
									}
								}
								JOINT LThumb
								{
									OFFSET 0 0 0
									CHANNELS 3 Zrotation Yrotation Xrotation
									End Site
									{
										OFFSET 0.53559 -0.00000 0.53559
									}
								}
							}
						}
					}
				}
				JOINT RightShoulder
				{
					OFFSET 0 0 0
					CHANNELS 3 Zrotation Yrotation Xrotation
					JOINT RightArm
					{
						OFFSET -3.20032 1.49783 -0.27688
						CHANNELS 3 Zrotation Yrotation Xrotation
						JOINT RightForeArm
						{
							OFFSET -5.09181 -0.00000 -0.00000
							CHANNELS 3 Zrotation Yrotation Xrotation
							JOINT RightHand
							{
								OFFSET -3.49865 -0.00000 -0.00000
								CHANNELS 3 Zrotation Yrotation Xrotation
								JOINT RightFingerBase
								{
									OFFSET 0 0 0
									CHANNELS 3 Zrotation Yrotation Xrotation
									JOINT RightHandIndex1
									{
										OFFSET -0.66641 -0.00000 0.00000
										CHANNELS 3 Zrotation Yrotation Xrotation
										End Site
										{
											OFFSET -0.53728 -0.00000 0.00000
										}
									}
								}
								JOINT RThumb
								{
									OFFSET 0 0 0
									CHANNELS 3 Zrotation Yrotation Xrotation
									End Site
									{
										OFFSET -0.54548 -0.00000 0.54548
									}
								}
							}
						}
					}
				}
			}
		}
	}
}
MOTION
Frames: 5
Frame Time: .0083333
0.1526 18.1442 -3.8444 -0.9011 14.5093 3.3609 0.0000 0.0000 0.0000 -14.8612 -2.2480 -9.9000 10.3829 17.6196 60.7605 -0.1155 6.3436 -0.1684 0.4650 -4.3740 -12.1313 0.0000 0.0000 0.0000 22.1619 7.3654 -18.5476 -3.1247 -10.8943 31.9241 1.0718 -19.2812 -14.8405 -0.0034 0.3764 -1.0343 0.8659 -2.4353 8.1902 5.0137 -2.8599 -1.3151 5.1516 -1.3480 -5.7633 2.0578 -3.6185 -17.2220 -2.3096 -5.0461 19.7154 -1.7564 -2.4613 8.8978 0.0000 0.0000 0.0000 -76.3860 13.7049 50.1517 56.6503 -55.3492 -31.5693 -0.0000 0.0000 -2.0876 0.5939 -4.8054 -0.0498 -7.1250 0.0000 -0.0000 -19.2862 25.0999 9.8239 0.0000 0.0000 0.0000 82.7178 -9.3220 -6.9651 -16.0178 25.5448 -3.6536 0.0000 -0.0000 -7.6304 -9.7019 -4.8310 0.8249 7.1250 -0.0000 -0.0000 13.9560 -34.6042 3.6525
0.1587 18.1582 -3.6528 -1.0585 14.2251 3.2074 0.0000 0.0000 0.0000 -14.7217 -2.2453 -11.2577 10.4645 17.6629 61.0298 -0.1174 6.1047 -1.4778 0.5177 -4.6116 -12.8040 0.0000 0.0000 0.0000 22.6594 7.0241 -17.6067 -3.0596 -10.7909 31.5778 1.0461 -19.2159 -15.1703 -0.0045 0.4338 -1.1920 1.0014 -2.4029 8.1576 4.9884 -2.8079 -1.2564 5.0366 -1.3287 -5.6948 1.9492 -3.6622 -17.1226 -2.2226 -5.0952 19.7075 -1.7125 -2.4831 8.8817 -0.0000 0.0000 0.0000 -76.0036 13.4025 50.2145 60.0707 -56.3288 -34.4000 -0.0000 0.0000 -2.0474 3.1025 -4.1429 -0.2244 -7.1250 0.0000 -0.0000 -17.5771 25.7488 8.5834 -0.0000 0.0000 0.0000 83.0169 -9.7871 -6.0776 -15.0693 24.2426 -3.2543 0.0000 -0.0000 -6.7470 -9.3274 -5.1448 0.8438 7.1250 -0.0000 -0.0000 14.3160 -34.8944 3.6476
0.1649 18.1660 -3.4632 -1.2561 13.9533 3.0535 0.0000 0.0000 0.0000 -14.5372 -2.2941 -12.6230 10.5229 17.6936 61.2220 -0.1122 5.9511 -2.7218 0.5570 -4.7804 -13.2834 0.0000 0.0000 0.0000 23.1950 6.6545 -16.7291 -3.0062 -10.7050 31.2914 1.0187 -19.1681 -15.5739 -0.0052 0.4662 -1.2810 1.1766 -2.3756 8.1160 4.9732 -2.7593 -1.1813 4.9090 -1.3124 -5.6047 1.8703 -3.6934 -17.0665 -2.1686 -5.1284 19.6951 -1.6837 -2.4989 8.8703 0.0000 -0.0000 0.0000 -75.6292 13.0419 50.1860 63.4520 -57.1618 -37.2278 -0.0000 0.0000 -2.0277 5.7322 -3.6871 -0.3699 -7.1250 0.0000 -0.0000 -15.7145 26.1993 7.4278 0.0000 -0.0000 0.0000 83.3187 -10.2313 -5.1343 -14.2069 23.0298 -2.9086 0.0000 -0.0000 -5.5623 -8.8885 -5.3021 0.8280 7.1250 -0.0000 -0.0000 14.7006 -35.0266 3.7023
0.1709 18.1678 -3.2756 -1.4796 13.7005 2.9060 0.0000 0.0000 0.0000 -14.3182 -2.3981 -14.0047 10.5591 17.7125 61.3411 -0.1010 5.8594 -3.8847 0.5846 -4.8954 -13.6105 0.0000 0.0000 0.0000 23.7566 6.2416 -15.9214 -2.9640 -10.6365 31.0636 0.9899 -19.1422 -16.0442 -0.0055 0.4803 -1.3198 1.3794 -2.3551 8.0859 4.9655 -2.7164 -1.1043 4.7753 -1.2992 -5.5195 1.7860 -3.7209 -17.0240 -2.1155 -5.1550 19.6675 -1.6535 -2.5122 8.8566 0.0000 -0.0000 0.0000 -75.2686 12.6494 50.0641 66.7704 -57.8595 -40.0272 -0.0000 0.0000 -2.0183 8.3146 -3.4185 -0.4993 -7.1250 0.0000 -0.0000 -13.8337 26.4642 6.3954 0.0000 -0.0000 0.0000 83.6219 -10.6885 -4.1032 -13.4490 21.9416 -2.6187 0.0000 -0.0000 -4.1617 -8.3633 -5.3106 0.7796 7.1250 -0.0000 -0.0000 15.1266 -35.0083 3.8230
0.1766 18.1639 -3.0901 -1.7346 13.4549 2.7600 0.0000 0.0000 0.0000 -14.0534 -2.5347 -15.4000 10.5737 17.7201 61.3892 -0.0853 5.8138 -4.9509 0.6018 -4.9660 -13.8117 0.0000 0.0000 0.0000 24.3555 5.8374 -15.1542 -2.9321 -10.5843 30.8903 0.9647 -19.1777 -16.5959 -0.0054 0.4762 -1.3086 1.6080 -2.3422 8.0760 4.9675 -2.6801 -1.0190 4.6392 -1.2896 -5.4373 1.7377 -3.7263 -17.0194 -2.0900 -5.1553 19.6726 -1.6372 -2.5132 8.8598 0.0000 -0.0000 0.0000 -74.9202 12.2245 49.8339 70.0223 -58.4369 -42.7896 -0.0000 0.0000 -2.0551 10.7750 -3.3309 -0.6335 -7.1250 0.0000 -0.0000 -12.0036 26.5447 5.4873 0.0000 -0.0000 0.0000 83.9285 -11.1441 -2.9644 -12.8065 21.0030 -2.3835 0.0000 -0.0000 -2.6503 -7.7641 -5.2332 0.7125 7.1250 -0.0000 -0.0000 15.5942 -34.9024 3.9903
